<svg xmlns="http://www.w3.org/2000/svg" width="201" height="62" viewBox="0 0 201 62" role="img" aria-label="home" fill="none" stroke-linecap="round" stroke-linejoin="round"><g stroke="#1a1a1a" stroke-width="11"><g transform="translate(0,-38)"><g><path d="M5.5,43.5 L5.5,94.5"></path><path d="M5.5,74 C5.5,66 11.5,61.5 19,61.5 C26.5,61.5 33,66 33,74 L33,94.5"></path></g><g transform="translate(44,0)"><circle cx="22" cy="78" r="16.5"></circle></g><g transform="translate(94,0)"><path d="M5.5,61.5 L5.5,94.5"></path><path d="M5.5,74 C5.5,66 10.5,61.5 17,61.5 C23.5,61.5 28.5,66 28.5,74 L28.5,94.5"></path><path d="M28.5,74 C28.5,66 33.5,61.5 40,61.5 C46.5,61.5 51.5,66 51.5,74 L51.5,94.5"></path></g><g transform="translate(157,0)"><path d="M38.5,78 L5.5,78"></path><path d="M38.5,78 A16.5,16.5 0 1 0 31.5,91.5"></path></g></g></g><g stroke="#ff9c35" stroke-width="5.8"><g transform="translate(0,-38)"><g><path d="M5.5,43.5 L5.5,94.5"></path><path d="M5.5,74 C5.5,66 11.5,61.5 19,61.5 C26.5,61.5 33,66 33,74 L33,94.5"></path></g><g transform="translate(44,0)"><circle cx="22" cy="78" r="16.5"></circle></g><g transform="translate(94,0)"><path d="M5.5,61.5 L5.5,94.5"></path><path d="M5.5,74 C5.5,66 10.5,61.5 17,61.5 C23.5,61.5 28.5,66 28.5,74 L28.5,94.5"></path><path d="M28.5,74 C28.5,66 33.5,61.5 40,61.5 C46.5,61.5 51.5,66 51.5,74 L51.5,94.5"></path></g><g transform="translate(157,0)"><path d="M38.5,78 L5.5,78"></path><path d="M38.5,78 A16.5,16.5 0 1 0 31.5,91.5"></path></g></g></g></svg>